<svg xmlns="http://www.w3.org/2000/svg" width="37.329" height="21.568" viewBox="0 0 37.329 21.568">
  <g id="h-menu" transform="translate(-33.977 -28.554)">
    <g id="menu_3_" data-name="menu (3)" transform="translate(39 -51.885)">
      <g id="Group_53" data-name="Group 53" transform="translate(-4.558 89.734)">
        <g id="Group_52" data-name="Group 52">
          <path id="Path_218" data-name="Path 218" d="M35.374,235.318H1.489a1.489,1.489,0,0,0,0,2.978H35.374a1.489,1.489,0,0,0,0-2.978Z" transform="translate(0 -235.318)" fill="#000000"/>
        </g>
      </g>
      <g id="Group_55" data-name="Group 55" transform="translate(-5.023 80.439)">
        <g id="Group_54" data-name="Group 54">
          <path id="Path_219" data-name="Path 219" d="M35.374,78.439H1.489a1.489,1.489,0,0,0,0,2.978H35.374a1.489,1.489,0,1,0,0-2.978Z" transform="translate(0 -78.439)" fill="#000000"/>
        </g>
      </g>
      <g id="Group_57" data-name="Group 57" transform="translate(-5 99.029)">
        <g id="Group_56" data-name="Group 56">
          <path id="Path_220" data-name="Path 220" d="M35.374,392.2H1.489a1.489,1.489,0,1,0,0,2.978H35.374a1.489,1.489,0,1,0,0-2.978Z" transform="translate(0 -392.197)" fill="#000000"/>
        </g>
      </g>
    </g>
  </g>
</svg>
