<svg xmlns="http://www.w3.org/2000/svg" width="177.39" height="71.68" viewBox="0 0 177.39 71.68">
  <path id="Horel-logo" d="M34.033-33.838a122.837,122.837,0,0,0-20.85,6.348q-.391.781-.781,1.611A93.9,93.9,0,0,0,3.32-1.367q-.488,2.734-2.2,2.734A2.808,2.808,0,0,1-1.123.1,3.3,3.3,0,0,1-1.9-2,27.428,27.428,0,0,1-.684-7.69a75.091,75.091,0,0,1,2.539-7.593q.488-1.221,3.076-7.129.635-1.416,1.27-2.979Q5.176-25,3.369-24.219a3.579,3.579,0,0,1-1.416.342q-1.514,0-1.514-2.295a2.53,2.53,0,0,1,1.27-2.295A18.063,18.063,0,0,1,5.176-29.98q2.637-.977,4.15-1.611.977-1.709,3.711-7.031.488-.977,3.271-5.566Q24.268-57.568,26.66-63.232a45.792,45.792,0,0,1,2.734-5.811,2.885,2.885,0,0,1,2.344-1.27,2.007,2.007,0,0,1,2.295,2.246q0,5.127-13.965,27.686A41.691,41.691,0,0,0,16.7-33.936l2.441-.684Q29.1-37.5,37.256-39.648,42.871-50,51.025-62.6q1.416-2.246,1.66-2.783,1.172-2.1,2.49-2.1a2.267,2.267,0,0,1,1.855.928,2.787,2.787,0,0,1,.586,1.709q0,1.758-1.9,5.029-.439.781-4,6.25-6.25,9.668-7.861,12.939,1.416-.146,2.148-.146,3.857,0,3.857,1.9a3.178,3.178,0,0,1-1.221,2.295,2.92,2.92,0,0,1-2.051.879h-1.9a20.991,20.991,0,0,0-3.516.439Q30.811-16.8,27.637-2.881,26.855.244,25.2.244A3.063,3.063,0,0,1,22.8-1.367,4.3,4.3,0,0,1,22.07-3.76Q22.07-8.447,34.033-33.838ZM65.063-35.3q4,0,4,4.883,0,6.494-6.006,16.455Q56.518-3.174,50.414-3.174a4.359,4.359,0,0,1-4.15-2.637,6.82,6.82,0,0,1-.684-3.174q0-6.25,4.3-13.574A32.864,32.864,0,0,1,59.3-33.105,10.425,10.425,0,0,1,65.063-35.3ZM59.985-16.846q-1.221-.977-1.221-1.514,0-.391,1.563-2.148,4.395-4.932,4.395-7.959a1.464,1.464,0,0,0-.244-.781,1.293,1.293,0,0,0-1.221-.732q-1.563,0-4.59,3.027A30.806,30.806,0,0,0,52.709-18.9q-2.393,4.736-2.393,7.861a2.51,2.51,0,0,0,.439,1.465,1.916,1.916,0,0,0,1.611.879q2.344,0,5.029-3.516a15.131,15.131,0,0,0,1.9-3.027A9.173,9.173,0,0,0,59.985-16.846ZM81.4-19.873A95.321,95.321,0,0,1,92.43-29.883a45.833,45.833,0,0,1,4.785-3.271,5,5,0,0,1,1.611-.732q.732,0,1.465,1.074a1.847,1.847,0,0,1,.439,1.074q0,.879-1.855,2.393-4.98,3.955-4.98,5.957,0,1.123,1.27,1.123,2.1,0,7.227-3.467a2.848,2.848,0,0,1,1.465-.586,1.125,1.125,0,0,1,.781.391,1.307,1.307,0,0,1,.439.928q0,1.465-4.1,4.492-4.3,3.223-8.154,3.223a5.3,5.3,0,0,1-2.881-.83,2.623,2.623,0,0,1-1.123-2.441,5.253,5.253,0,0,1,1.025-2.783q-3.857,2.734-9.082,9.375A67.919,67.919,0,0,0,74.755-3.857q-1.123,2.246-2.783,2.246-1.807,0-1.807-1.709,0-1.66,2.832-8.887,4.2-10.742,8.789-16.65,2.832-3.662,4.736-3.662a1.95,1.95,0,0,1,1.172.391,1.484,1.484,0,0,1,.635,1.221,4,4,0,0,1-.977,2.051q-.2.244-2.588,3.271A25.683,25.683,0,0,0,81.4-19.873Zm28.588,6.689v.879a3.194,3.194,0,0,0,.537,1.855,4.478,4.478,0,0,0,4,1.807q6.1,0,14.111-9.375,1.416-1.611,2.393-1.611a1.258,1.258,0,0,1,.977.537,1.246,1.246,0,0,1,.293.732q0,1.9-4.687,6.445A35.284,35.284,0,0,1,119.8-6.1a16.362,16.362,0,0,1-7.715,2.246A7.074,7.074,0,0,1,106.321-6.4a7.417,7.417,0,0,1-1.416-4.785q0-8.252,7.764-16.162,6.3-6.445,10.986-6.445a3.693,3.693,0,0,1,2.295.781,3.286,3.286,0,0,1,1.27,2.686q0,2.588-2.393,6.348Q119.9-16.162,109.984-13.184Zm1.074-3.809a19.626,19.626,0,0,0,5.371-2.637,21.686,21.686,0,0,0,5.42-5.957,4.078,4.078,0,0,0,.732-2.1q0-.977-.928-.977-1.27,0-3.613,1.9A24.993,24.993,0,0,0,111.058-16.992Zm33.666-3.027q-1.465,3.809-2.2,6.152a13.186,13.186,0,0,0-.732,3.271q0,1.221,1.172,1.221,1.758,0,4.541-3.32a60.25,60.25,0,0,0,3.906-5.811q1.025-1.66,2.148-1.66,1.27,0,1.27,1.221,0,2.1-4.834,8.5-5.029,6.689-9.326,6.689a3.622,3.622,0,0,1-3.027-1.562,4.472,4.472,0,0,1-.83-2.734,25.154,25.154,0,0,1,1.66-7.568,119.54,119.54,0,0,1,4.932-11.768q8.4-17.627,17.139-29.053,6.982-9.18,11.572-9.18a2.961,2.961,0,0,1,2.393,1.123,3.828,3.828,0,0,1,.977,2.588q0,6.836-12.207,22.754A117.833,117.833,0,0,1,150.193-25Q148.191-23.145,144.724-20.02Zm3.467-7.764a89.166,89.166,0,0,0,18.164-21.973q4.15-6.885,4.15-9.131,0-1.074-.928-1.074-2.686,0-9.766,10.693A152.931,152.931,0,0,0,148.191-27.783Z" transform="translate(1.904 70.313)" fill="#313131"/>
</svg>
