<svg id="shopping-cart-icon" xmlns="http://www.w3.org/2000/svg" width="26.385" height="26.385" viewBox="0 0 26.385 26.385">
  <g id="shopping-cart">
    <path id="Path_221" data-name="Path 221" d="M7.915,21.108a2.638,2.638,0,1,0,2.638,2.638A2.646,2.646,0,0,0,7.915,21.108ZM0,0V2.638H2.638L7.388,12.665,5.541,15.831a4.687,4.687,0,0,0-.264,1.319,2.646,2.646,0,0,0,2.638,2.638H23.746V17.15H8.443a.284.284,0,0,1-.264-.264v-.132l1.187-2.243h9.762a2.406,2.406,0,0,0,2.243-1.319l4.749-8.575a.726.726,0,0,0,.264-.66,1.246,1.246,0,0,0-1.319-1.319H5.541L4.353,0ZM21.108,21.108a2.638,2.638,0,1,0,2.638,2.638A2.646,2.646,0,0,0,21.108,21.108Z" fill="#313131"/>
  </g>
</svg>
