<svg xmlns="http://www.w3.org/2000/svg" width="33.225" height="28.845" viewBox="0 0 33.225 28.845">
  <g id="sign-in" transform="translate(0 -1.781)">
    <g id="Group_58" data-name="Group 58" transform="translate(0 1.781)">
      <path id="Path_222" data-name="Path 222" d="M21.953,25.686a6.308,6.308,0,0,1,3.182-5.459,25.3,25.3,0,0,0-3.8-.888,9.365,9.365,0,1,0-9.069,0C5.192,20.442,0,24.055,0,28.349H22.562A6.264,6.264,0,0,1,21.953,25.686Z" transform="translate(0 -1.781)" fill="#313131"/>
    </g>
    <path id="Path_223" data-name="Path 223" d="M23.926,17.206a4.94,4.94,0,1,0,4.94,4.94A4.94,4.94,0,0,0,23.926,17.206Zm3.225,5.816H24.8V25.37H23.05V23.022H20.7V21.265H23.05v-2.35H24.8v2.35h2.347Z" transform="translate(4.358 3.541)" fill="#313131"/>
  </g>
</svg>
