<svg xmlns="http://www.w3.org/2000/svg" width="23.336" height="27.434" viewBox="0 0 23.336 27.434">
  <g id="avatar" transform="translate(-36.073)">
    <g id="Group_33" data-name="Group 33" transform="translate(36.073)">
      <path id="Path_209" data-name="Path 209" d="M142.912,14.782h.182A5.242,5.242,0,0,0,147.1,13.05c2.187-2.466,1.824-6.692,1.784-7.1-.142-3.028-1.574-4.477-2.755-5.153a6.317,6.317,0,0,0-3.056-.8h-.1a6.326,6.326,0,0,0-3.056.778c-1.193.676-2.647,2.125-2.789,5.176-.04.4-.4,4.63,1.784,7.1A5.221,5.221,0,0,0,142.912,14.782ZM138.645,6.1c0-.017.006-.034.006-.045.188-4.073,3.079-4.511,4.318-4.511h.068c1.534.034,4.142.659,4.318,4.511a.111.111,0,0,0,.006.045c.006.04.4,3.9-1.4,5.937a3.724,3.724,0,0,1-2.926,1.216h-.057a3.711,3.711,0,0,1-2.92-1.216C138.253,10.01,138.639,6.13,138.645,6.1Z" transform="translate(-131.343)" fill="#95989a"/>
      <path id="Path_210" data-name="Path 210" d="M59.407,266.309v-.017c0-.045-.006-.091-.006-.142-.034-1.125-.108-3.755-2.574-4.6l-.057-.017a16.392,16.392,0,0,1-4.715-2.148.767.767,0,0,0-.881,1.256,17.694,17.694,0,0,0,5.187,2.369c1.324.472,1.471,1.886,1.511,3.181a1.14,1.14,0,0,0,.006.142,10.312,10.312,0,0,1-.119,1.755,20.908,20.908,0,0,1-10.016,2.329,21.028,21.028,0,0,1-10.022-2.335,9.762,9.762,0,0,1-.119-1.755c0-.045.006-.091.006-.142.04-1.3.187-2.71,1.511-3.181a17.858,17.858,0,0,0,5.187-2.369.767.767,0,1,0-.881-1.256,16.213,16.213,0,0,1-4.715,2.147c-.023.006-.04.011-.057.017-2.466.847-2.539,3.477-2.574,4.6a1.14,1.14,0,0,1-.006.142v.017a8.712,8.712,0,0,0,.29,2.574.729.729,0,0,0,.3.358,21.488,21.488,0,0,0,11.09,2.716,21.554,21.554,0,0,0,11.09-2.716.76.76,0,0,0,.3-.358A9.141,9.141,0,0,0,59.407,266.309Z" transform="translate(-36.073 -244.516)" fill="#95989a"/>
    </g>
  </g>
</svg>
