<svg xmlns="http://www.w3.org/2000/svg" width="17.465" height="18.794" viewBox="0 0 17.465 18.794">
  <path id="Path_199" data-name="Path 199" d="M22.178,12.375H32.534a2.136,2.136,0,0,0,2.132-2.132v-4.4a.049.049,0,0,0,0-.023c0-.008,0-.019,0-.027s0-.015,0-.023a.246.246,0,0,1-.008-.027c0-.008,0-.015-.008-.023s0-.015-.008-.023a.188.188,0,0,1-.012-.027.084.084,0,0,0-.012-.019L34.6,5.623c0-.008-.008-.012-.012-.019s-.012-.015-.015-.023a.068.068,0,0,0-.015-.019c0-.008-.012-.012-.015-.019s-.012-.012-.015-.019-.012-.012-.015-.015l-.019-.019c-.008,0-.012-.012-.019-.015s-.015-.012-.023-.015l-.019-.012A.081.081,0,0,1,34.4,5.43l-.023-.012-.023-.012L34.333,5.4c-.008,0-.015,0-.023-.008a.072.072,0,0,0-.027-.008.167.167,0,0,1-.019,0,.085.085,0,0,0-.031,0s-.008,0-.015,0L21.093,3.556V1.726a.238.238,0,0,0,0-.054.029.029,0,0,0,0-.015c0-.012,0-.023,0-.035s0-.019-.008-.031,0-.012,0-.019l-.012-.035s0-.012,0-.015a.116.116,0,0,0-.015-.031s0-.012-.008-.015a.081.081,0,0,0-.015-.023c0-.008-.008-.012-.012-.019S21,1.42,20.992,1.413s-.012-.015-.015-.023l-.012-.012-.023-.023-.012-.012A.168.168,0,0,0,20.9,1.32l-.015-.012c-.008-.008-.015-.012-.023-.019l-.031-.019s-.008,0-.012-.008l-.05-.023L17.925.041A.522.522,0,1,0,17.52,1l2.526,1.066V13.495A2.135,2.135,0,0,0,21.9,15.608a2.1,2.1,0,1,0,3.909,1.082,2.065,2.065,0,0,0-.29-1.062h4.689a2.076,2.076,0,0,0-.29,1.062,2.105,2.105,0,1,0,2.105-2.105h-9.85a1.09,1.09,0,0,1-1.089-1.089V12.081A2.156,2.156,0,0,0,22.178,12.375Zm2.6,4.311a1.062,1.062,0,1,1-1.062-1.062A1.064,1.064,0,0,1,24.774,16.685Zm8.32,0a1.062,1.062,0,1,1-1.062-1.062A1.064,1.064,0,0,1,33.094,16.685Zm-.56-5.354H22.178a1.09,1.09,0,0,1-1.089-1.089V4.607L33.623,6.334v3.905A1.091,1.091,0,0,1,32.534,11.332Z" transform="translate(-17.2 0)" fill="#fff"/>
</svg>
