<svg xmlns="http://www.w3.org/2000/svg" width="20.287" height="20.287" viewBox="0 0 20.287 20.287">
  <g id="settings_1_" data-name="settings (1)" transform="translate(0)">
    <g id="Group_35" data-name="Group 35" transform="translate(0 6.847)">
      <g id="Group_34" data-name="Group 34" transform="translate(0)">
        <path id="Path_214" data-name="Path 214" d="M13.03,180.565c-.213-.128-.432-.257-.651-.383a5.669,5.669,0,0,0,0-1.32c.22-.127.439-.256.651-.383a.855.855,0,0,0,.346-1.054h0L12.91,176.3a.855.855,0,0,0-.99-.5c-.241.06-.486.124-.731.189a5.671,5.671,0,0,0-.934-.933c.066-.245.129-.491.189-.731a.855.855,0,0,0-.5-.99l-1.126-.466a.855.855,0,0,0-1.054.346c-.128.213-.257.432-.383.651a5.669,5.669,0,0,0-1.32,0c-.127-.22-.256-.439-.383-.651a.855.855,0,0,0-1.054-.346l-1.126.466a.855.855,0,0,0-.5.99c.06.241.124.487.189.731a5.666,5.666,0,0,0-.933.934c-.246-.066-.491-.13-.732-.189a.855.855,0,0,0-.99.5l-.466,1.126a.855.855,0,0,0,.346,1.054c.213.128.432.257.651.383a5.673,5.673,0,0,0,0,1.32c-.219.127-.438.255-.651.383a.855.855,0,0,0-.346,1.054l.466,1.126a.855.855,0,0,0,.99.5c.24-.06.486-.124.731-.189a5.672,5.672,0,0,0,.934.933c-.066.245-.129.491-.189.732a.855.855,0,0,0,.5.99l1.126.466a.842.842,0,0,0,.322.064.855.855,0,0,0,.732-.41c.127-.211.256-.43.383-.651a5.679,5.679,0,0,0,1.32,0c.126.218.255.437.383.651a.855.855,0,0,0,1.054.346l1.126-.466a.855.855,0,0,0,.5-.99c-.06-.239-.123-.485-.189-.731a5.674,5.674,0,0,0,.933-.934c.245.066.491.129.731.189a.855.855,0,0,0,.99-.5l.466-1.126A.855.855,0,0,0,13.03,180.565Zm-.94,1.787c-.231-.058-.467-.119-.7-.182a.848.848,0,0,0-.892.3,4.761,4.761,0,0,1-.831.831.848.848,0,0,0-.3.892c.064.236.125.472.182.7l-1.035.429c-.123-.205-.246-.415-.367-.625a.849.849,0,0,0-.841-.421,4.765,4.765,0,0,1-1.175,0,.848.848,0,0,0-.841.421c-.122.212-.245.422-.367.625l-1.035-.429c.058-.231.119-.467.182-.7a.848.848,0,0,0-.3-.892,4.762,4.762,0,0,1-.831-.831.848.848,0,0,0-.892-.3c-.235.063-.47.124-.7.182l-.429-1.035c.2-.123.414-.246.625-.367a.848.848,0,0,0,.421-.841,4.767,4.767,0,0,1,0-1.175.848.848,0,0,0-.421-.841c-.21-.121-.42-.244-.625-.367l.429-1.035c.231.058.466.119.7.182a.848.848,0,0,0,.892-.3,4.76,4.76,0,0,1,.831-.831.848.848,0,0,0,.3-.892c-.063-.234-.124-.47-.182-.7l1.035-.429c.122.2.246.414.367.625a.848.848,0,0,0,.841.421,4.755,4.755,0,0,1,1.175,0,.848.848,0,0,0,.841-.421c.121-.21.244-.42.367-.625l1.035.429c-.058.231-.119.467-.182.7a.848.848,0,0,0,.3.892,4.764,4.764,0,0,1,.831.831.848.848,0,0,0,.892.3c.235-.063.47-.124.7-.182l.429,1.035c-.2.122-.414.246-.625.367a.848.848,0,0,0-.421.841,4.762,4.762,0,0,1,0,1.175.848.848,0,0,0,.421.841c.21.121.42.244.625.367Z" transform="translate(0 -172.801)" fill="#fff"/>
      </g>
    </g>
    <g id="Group_37" data-name="Group 37" transform="translate(3.625 10.472)">
      <g id="Group_36" data-name="Group 36">
        <path id="Path_215" data-name="Path 215" d="M97.448,266.2h0a3.1,3.1,0,1,0-1.675,4.044A3.1,3.1,0,0,0,97.448,266.2Zm-2.022,3.2a2.187,2.187,0,1,1,1.184-2.857A2.173,2.173,0,0,1,95.425,269.408Z" transform="translate(-91.494 -264.293)" fill="#fff"/>
      </g>
    </g>
    <g id="Group_39" data-name="Group 39" transform="translate(9.979)">
      <g id="Group_38" data-name="Group 38">
        <path id="Path_216" data-name="Path 216" d="M261.543,4c-.157-.023-.318-.046-.48-.068a4.223,4.223,0,0,0-.325-.785c.1-.13.2-.26.292-.387a.724.724,0,0,0-.071-.936l-.626-.626a.723.723,0,0,0-.936-.07c-.128.095-.258.193-.388.291a4.225,4.225,0,0,0-.785-.326c-.022-.162-.044-.323-.068-.48A.724.724,0,0,0,257.444,0h-.886a.724.724,0,0,0-.712.612c-.023.157-.046.318-.068.48a4.224,4.224,0,0,0-.785.326c-.129-.1-.259-.2-.387-.291a.723.723,0,0,0-.936.07l-.626.626a.724.724,0,0,0-.071.936c.094.128.192.258.291.387a4.231,4.231,0,0,0-.325.785c-.162.022-.323.044-.48.068a.724.724,0,0,0-.612.712V5.6a.724.724,0,0,0,.612.712c.157.023.318.046.48.068a4.229,4.229,0,0,0,.325.785c-.1.13-.2.26-.292.387a.723.723,0,0,0,.071.936l.626.626a.723.723,0,0,0,.936.07c.128-.095.258-.193.387-.291a4.227,4.227,0,0,0,.785.325c.022.162.044.323.068.48a.724.724,0,0,0,.712.612h.886a.723.723,0,0,0,.712-.612c.023-.157.046-.318.068-.48a4.221,4.221,0,0,0,.785-.326c.129.1.259.2.387.291a.723.723,0,0,0,.936-.07l.626-.626a.724.724,0,0,0,.07-.936c-.095-.128-.192-.258-.291-.387a4.229,4.229,0,0,0,.325-.785c.162-.022.323-.044.48-.068a.724.724,0,0,0,.612-.712V4.711A.724.724,0,0,0,261.543,4Zm-.251,1.474c-.142.021-.288.041-.433.06a.718.718,0,0,0-.6.521,3.356,3.356,0,0,1-.317.766.718.718,0,0,0,.056.794c.089.116.178.233.264.349l-.452.452c-.116-.086-.233-.175-.349-.264a.718.718,0,0,0-.794-.056,3.36,3.36,0,0,1-.766.317.717.717,0,0,0-.521.6c-.019.146-.039.291-.06.433h-.639c-.021-.142-.041-.288-.06-.433a.718.718,0,0,0-.521-.6,3.358,3.358,0,0,1-.766-.317.718.718,0,0,0-.794.056c-.116.089-.233.178-.349.264l-.452-.452c.086-.116.175-.233.264-.349a.718.718,0,0,0,.056-.794,3.359,3.359,0,0,1-.317-.766.717.717,0,0,0-.6-.521c-.146-.019-.291-.039-.433-.06V4.835c.142-.021.288-.041.433-.06a.717.717,0,0,0,.6-.521,3.358,3.358,0,0,1,.317-.766.718.718,0,0,0-.056-.794c-.09-.116-.178-.233-.264-.349l.452-.452c.116.086.233.175.349.264a.718.718,0,0,0,.794.056A3.36,3.36,0,0,1,256.1,1.9a.717.717,0,0,0,.521-.6c.019-.146.039-.291.06-.433h.639c.021.142.041.288.06.433a.718.718,0,0,0,.521.6,3.359,3.359,0,0,1,.766.317.718.718,0,0,0,.794-.056c.116-.089.233-.178.349-.264l.452.452c-.086.116-.175.232-.264.349a.718.718,0,0,0-.056.794,3.36,3.36,0,0,1,.317.766.717.717,0,0,0,.6.521c.146.019.291.039.433.06Z" transform="translate(-251.847)" fill="#fff"/>
      </g>
    </g>
    <g id="Group_41" data-name="Group 41" transform="translate(13.294 3.316)">
      <g id="Group_40" data-name="Group 40">
        <path id="Path_217" data-name="Path 217" d="M337.362,83.675a1.839,1.839,0,1,0,1.839,1.839A1.841,1.841,0,0,0,337.362,83.675Zm0,2.86a1.021,1.021,0,1,1,1.021-1.021A1.022,1.022,0,0,1,337.362,86.535Z" transform="translate(-335.523 -83.675)" fill="#fff"/>
      </g>
    </g>
  </g>
</svg>
