<svg xmlns="http://www.w3.org/2000/svg" width="19.946" height="18.078" viewBox="0 0 19.946 18.078">
  <g id="tshirt" transform="translate(0 -19.089)">
    <g id="Group_1" data-name="Group 1" transform="translate(0 19.089)">
      <path id="Path_198" data-name="Path 198" d="M19.839,23.929l-.014-.014-4.117-3.659a.391.391,0,0,0-.129-.078L12.6,19.112a.391.391,0,0,0-.524.348,2.119,2.119,0,0,1-4.239,0,.391.391,0,0,0-.521-.348L4.341,20.188a.391.391,0,0,0-.129.078L.122,23.914a.391.391,0,0,0-.014.553l.014.014,3.256,3.292v9a.391.391,0,0,0,.391.391H16.177a.391.391,0,0,0,.391-.391v-9l3.256-3.292A.391.391,0,0,0,19.839,23.929Zm-3.282,2.729V24.842a.391.391,0,1,0-.783,0V36.365H4.145V24.842a.391.391,0,0,0-.783,0v1.82L.956,24.224l3.726-3.335L7.132,20A2.885,2.885,0,0,0,12.8,20l2.45.885,3.714,3.335Z" transform="translate(0 -19.089)" fill="#fff"/>
    </g>
  </g>
</svg>
