<svg xmlns="http://www.w3.org/2000/svg" width="434.944" height="251" viewBox="0 0 434.944 251"><g transform="translate(-839 -415)"><g transform="translate(839 310.976)"><path d="M434.457,318.667c-5.49-20.83-22.217-20.605-73.275-44.7C317.4,253.3,282.2,217.442,265,197.769c-6.548-7.5-15.673-13.921-29.479-13.921H224.343l.052-20.071c.516-.748,3.018-2.276,4.677-3.282,6.532-3.981,17.448-10.644,17.448-26.7a29.76,29.76,0,1,0-59.52,0,7.85,7.85,0,1,0,15.7,0,14.061,14.061,0,1,1,28.121,0c0,6.911-3.587,9.43-9.923,13.3-5.063,3.094-11.986,7.313-11.986,15.944v20.811h-9.476c-12.788,0-22.916,6.416-29.462,13.921-17.2,19.672-52.411,55.533-96.182,76.2C22.729,298.063,6,297.818.489,318.685c-2.543,9.638,5.22,14.879,14.342,10.892,31.432-13.7,102.794-47.476,173.594-99.163,0,0,13.513-11.518,28.028-11.518h2.04c14.527,0,28.027,11.518,28.027,11.518,70.815,51.688,142.168,85.458,173.6,99.163C429.243,333.539,436.994,328.3,434.457,318.667Z"/></g><text transform="translate(943 657)" fill="#313131" font-size="43" font-family="LucidaFax-Italic, Lucida Fax" font-style="italic"><tspan x="0" y="0">MEDIONEL</tspan></text></g></svg>